**ABCDEFGHIJKLMNOPQRSTUVWXYZabcdefghijklmnopqrstuvwxyz**************************
**PARASOLID !"#$%&'()*+,-./:;<=>?@[\]^_`{|}~0123456789**************************
**PART1;
MC=;
MC_MODEL=;
MC_ID=unknown;
OS=Windows;
OS_RELEASE=;
FRU=;
APPL=Autodesk Inventor 2017;
SITE=unknown;
USER=unknown;
FORMAT=text;
GUISE=transmit;
KEY=DP-120;
FILE=C:\Users\Kathryn Rosie\Google Drive\HERA\Feed\CAD\Other Formats\DP-120.x_t;
DATE=2018-Oct-26 10:44:36;
**PART2;
SCH=SCH_2800197_28002;
USFLD_SIZE=0;
**PART3;
**END_OF_HEADER*****************************************************************
T51 : TRANSMIT FILE created by modeller version 280019717 SCH_1800000_180070 12
 1 536 2 3 0 0 0 0 1e3 1e-8 0 0 0 1 0 1 1 4 5 6 7 8 9 10 81 1 2 536 11 1 12 0 0
 0 13 70 3 0 4 T1 0 0 6 20 1 14 14 13 4 263 0 1 0 15 0 0 16 0 51 5 434 0 15 17 0
 0 +.2 .4225 0 0 0 -1 .0032 1 0 0 30 6 401 0 9 18 0 0 +.4174349549605 .060525187
95588 .015 0 0 -1 29 7 325 0 10 19 0 .1968 .4225 .015 19 8 1 0 1 16 0 20 V16 9 2
11 0 ?21 0 22 6 0 0 1 18 10 171 0 23 0 24 7 ?1 17 23 0 25 23 23 10 26 27 0 26 +1
8 24 168 0 28 10 29 19 ?1 17 28 0 30 28 28 24 31 32 0 31 +18 29 165 0 33 24 34 3
5 ?1 29 19 324 0 24 35 7 .0968 .4225 .015 29 35 323 0 29 36 19 -.1032 .4225 .015
 29 36 322 0 34 37 35 -.2032 .4225 .015 18 34 162 0 38 29 39 36 ?1 29 37 321 0 3
9 40 36 -.4392957330989 .08411747072444 .015 18 39 159 0 41 34 42 37 ?1 29 40 32
0 0 42 43 37 -.3892957330989 .1707200111029 .015 18 42 156 0 44 39 45 40 ?1 29 4
3 319 0 45 46 40 -.3392957330989 .2573225514813 .015 18 45 153 0 47 42 48 43 ?1
 29 46 318 0 48 49 43 -.2892957330989 .3439250918598 .015 18 48 150 0 50 45 51 4
6 ?1 29 49 317 0 51 52 46 .2924957330989 .3383825292756 .015 18 51 147 0 53 48 5
4 49 ?1 29 52 316 0 54 55 49 .3424957330989 .2517799888971 .015 18 54 144 0 56 5
1 57 52 ?1 29 55 315 0 57 58 52 .3924957330989 .1651774485187 .015 18 57 141 0 5
9 54 60 55 ?1 29 58 314 0 60 61 55 .4424957330989 .07857490814022 .015 18 60 138
 0 62 57 63 58 ?1 29 61 313 0 63 64 58 .1468 -.4225 .015 18 63 135 0 65 60 66 61
 ?1 29 64 312 0 66 67 61 .0468 -.4225 .015 18 66 132 0 68 63 69 64 ?1 29 67 311
 0 69 70 64 -.0532 -.4225 .015 18 69 129 0 71 66 72 67 ?1 29 70 310 0 72 73 67 -
.1532 -.4225 .015 18 72 126 0 74 69 75 70 ?1 29 73 309 0 75 76 70 .4237687238362
 .06144354073662 .015 18 75 122 0 77 72 78 73 ?1 29 76 308 0 78 79 73 .417434954
9605 .06052518795588 .015 18 78 120 0 80 75 81 76 ?1 29 79 307 0 81 82 76 .41743
49549605 -.06052518795588 .015 18 81 118 0 83 78 84 79 ?1 29 82 306 0 84 85 79 .
4237687238362 -.06144354073662 .015 18 84 117 0 86 81 87 82 ?1 29 85 305 0 87 88
 82 -.4237687238362 -.06144354073662 .015 18 87 113 0 89 84 90 85 ?1 29 88 304 0
 90 91 85 -.4174349549605 -.06052518795588 .015 18 90 111 0 92 87 93 88 ?1 29 91
 303 0 93 94 88 -.4174349549605 .06052518795588 .015 18 93 109 0 95 90 96 91 ?1
 29 94 302 0 96 97 91 -.4237687238362 .06144354073662 .015 18 96 108 0 98 93 99
 94 ?1 29 97 301 0 99 100 94 -.2540341184434 -.44 .015 18 99 103 0 101 96 102 97
 ?1 29 100 300 0 102 103 97 -.5080682368869 -4255456636607e-28 .015 18 102 101 0
 104 99 105 100 ?1 29 103 299 0 105 106 100 -.2540341184434 .44 .015 18 105 99 0
 107 102 108 103 ?1 29 106 298 0 108 109 103 .2540341184434 .44 .015 18 108 97 0
 110 105 111 106 ?1 29 109 297 0 111 112 106 .2540341184434 -.44 .015 18 111 95
 0 113 108 114 109 ?1 29 112 296 0 114 115 109 .5080682368869 5115142821516e-28
 .015 18 114 94 0 116 111 117 112 ?1 29 115 295 0 117 118 112 .405 -991963907309
4e-29 .015 18 117 90 0 119 114 120 115 ?1 29 118 294 0 120 121 115 .1968 .4225 0
 18 120 85 0 122 117 123 118 ?1 29 121 293 0 123 124 118 .0968 .4225 0 18 123 82
 0 125 120 126 121 ?1 29 124 292 0 126 127 121 -.1032 .4225 0 18 126 79 0 128 12
3 129 124 ?1 29 127 291 0 129 130 124 -.2032 .4225 0 18 129 76 0 131 126 132 127
 ?1 29 130 290 0 132 133 127 -.4392957330989 .08411747072444 0 18 132 73 0 134 1
29 135 130 ?1 29 133 289 0 135 136 130 -.3892957330989 .1707200111029 0 18 135 7
0 0 137 132 138 133 ?1 29 136 288 0 138 139 133 -.3392957330989 .2573225514813 0
 18 138 67 0 140 135 141 136 ?1 29 139 287 0 141 142 136 -.2892957330989 .343925
0918598 0 18 141 64 0 143 138 144 139 ?1 29 142 286 0 144 145 139 .2924957330989
 .3383825292756 0 18 144 61 0 146 141 147 142 ?1 29 145 285 0 147 148 142 .34249
57330989 .2517799888971 0 18 147 58 0 149 144 150 145 ?1 29 148 284 0 150 151 14
5 .3924957330989 .1651774485187 0 18 150 55 0 152 147 153 148 ?1 29 151 283 0 15
3 154 148 .4424957330989 .07857490814022 0 18 153 52 0 155 150 156 151 ?1 29 154
 282 0 156 157 151 .1468 -.4225 0 18 156 49 0 158 153 159 154 ?1 29 157 281 0 15
9 160 154 .0468 -.4225 0 18 159 46 0 161 156 162 157 ?1 29 160 280 0 162 163 157
 -.0532 -.4225 0 18 162 43 0 164 159 165 160 ?1 29 163 279 0 165 166 160 -.1532
 -.4225 0 18 165 40 0 167 162 168 163 ?1 29 166 278 0 168 169 163 .4174349549605
 .06052518795588 0 18 168 36 0 21 165 170 166 ?1 29 169 277 0 170 171 166 .42376
87238362 .06144354073662 0 18 170 34 0 172 168 173 169 ?1 29 171 276 0 173 174 1
69 .4174349549605 -.06052518795588 0 18 173 32 0 175 170 176 171 ?1 29 174 275 0
 176 177 171 .4237687238362 -.06144354073662 0 18 176 31 0 178 173 179 174 ?1 29
 177 274 0 179 180 174 -.4174349549605 -.06052518795588 0 18 179 27 0 181 176 18
2 177 ?1 29 180 273 0 182 183 177 -.4237687238362 -.06144354073662 0 18 182 25 0
 184 179 185 180 ?1 29 183 272 0 185 186 180 -.4174349549605 .06052518795588 0 1
8 185 23 0 187 182 188 183 ?1 29 186 271 0 188 189 183 -.4237687238362 .06144354
073662 0 18 188 22 0 190 185 191 186 ?1 29 189 270 0 191 192 186 .405 -991963907
3094e-29 0 18 191 19 0 193 188 194 189 ?1 29 192 269 0 194 195 189 .508068236886
9 5115334040506e-28 0 18 194 15 0 196 191 197 192 ?1 29 195 268 0 197 198 192 .2
540341184434 .44 0 18 197 13 0 199 194 200 195 ?1 29 198 267 0 200 201 195 -.254
0341184434 .44 0 18 200 11 0 202 197 203 198 ?1 29 201 266 0 203 204 198 -.50806
82368869 -4404160950883e-28 0 18 203 9 0 205 200 206 201 ?1 29 204 265 0 206 207
 201 .2540341184434 -.44 0 18 206 7 0 208 203 209 204 ?1 29 207 264 0 209 0 204
 -.2540341184434 -.44 0 18 209 6 0 210 206 0 207 ?1 17 210 0 211 212 213 209 101
 214 0 215 +15 211 177 0 212 216 0 17 212 0 211 113 210 206 217 218 0 0 +17 213
 0 211 210 113 99 219 220 0 221 +17 101 0 222 223 215 99 210 214 0 213 -16 214 1
78 0 ?210 224 225 226 0 0 1 17 215 0 222 101 205 209 227 228 0 217 +15 222 180 0
 215 229 0 17 205 0 222 215 223 203 104 224 0 230 +17 227 0 231 232 217 203 215
 228 0 0 -16 228 8 0 ?215 233 218 234 0 0 1 17 217 0 231 227 235 209 212 218 0 0
 -15 231 4 0 217 236 0 17 235 0 231 217 237 206 238 239 0 212 -16 218 5 0 ?212 2
28 0 240 0 0 1 30 240 326 0 218 0 234 0 +-.2540341184434 -.44 0 1 0 0 30 234 327
 0 228 240 241 0 +-.5080682368869 -4404160950883e-28 0 .500000000000096 -.866025
403784383 0 30 241 328 0 233 234 242 0 +-.2540341184434 .44 0 -.500000000000095
 -.866025403784384 0 16 233 10 0 ?230 243 228 241 0 0 1 30 242 329 0 243 241 244
 0 +.2540341184434 .44 0 -1 0 0 16 243 12 0 ?245 246 233 242 0 0 1 30 244 330 0
 246 242 247 0 +.5080682368869 5115334040506e-28 0 -.500000000000096 .8660254037
84383 0 16 246 14 0 ?248 239 243 244 0 0 1 30 247 331 0 239 244 249 0 +.25403411
84434 -.44 0 .500000000000095 .866025403784384 0 16 239 16 0 ?238 250 246 247 0
 0 1 31 249 332 0 250 247 251 0 +0 0 0 0 0 1 -1 0 0 .405 16 250 18 0 ?193 252 23
9 249 0 0 1 31 251 333 0 252 249 253 0 +-.4206018393984 .06098436434625 0 0 0 -1
 -.989651386819654 .1434926219912932 0 .0032 16 252 21 0 ?254 255 250 251 0 0 1
 31 253 334 0 255 251 256 0 +237043792775e-26 0 0 0 0 -1 -.989651386819668 -.143
4926219911954 0 .4282 16 255 24 0 ?257 258 252 253 0 0 1 31 256 335 0 258 253 25
9 0 +-.4206018393984 -.06098436434625 0 0 0 -1 .989651386819682 .143492621991097
4 0 .0032 16 258 26 0 ?260 261 255 256 0 0 1 31 259 336 0 261 256 262 0 +0 0 0 0
 0 -1 -.989651386819668 -.1434926219911952 0 .4218 16 261 28 0 ?263 264 258 259
 0 0 1 31 262 337 0 264 259 265 0 +.4206018393984 -.06098436434625 0 0 0 -1 .989
651386819654 -.1434926219912932 0 .0032 16 264 30 0 ?266 267 261 262 0 0 1 31 26
5 338 0 267 262 268 0 +-237043792775e-26 0 0 0 0 -1 .989651386819668 .1434926219
911954 0 .4282 16 267 33 0 ?269 270 264 265 0 0 1 31 268 339 0 270 265 271 0 +.4
206018393984 .06098436434625 0 0 0 -1 -.989651386819682 -.1434926219910974 0 .00
32 16 270 35 0 ?272 273 267 268 0 0 1 31 271 340 0 273 268 274 0 +0 0 0 0 0 -1 .
989651386819668 .1434926219911952 0 .4218 16 273 37 0 ?275 276 270 271 0 0 1 31
 274 341 0 276 271 277 0 +-.15 -.4225 0 0 0 1 1 0 0 .0032 16 276 39 0 ?167 278 2
73 274 0 0 1 31 277 342 0 278 274 279 0 +-.05 -.4225 0 0 0 1 1 0 0 .0032 16 278
 42 0 ?164 280 276 277 0 0 1 31 279 343 0 280 277 281 0 +.05 -.4225 0 0 0 1 1 0
 0 .0032 16 280 45 0 ?161 282 278 279 0 0 1 31 281 344 0 282 279 283 0 +.15 -.42
25 0 0 0 1 1 0 0 .0032 16 282 48 0 ?158 284 280 281 0 0 1 31 283 345 0 284 281 2
85 0 +.4408957330989 .08134618943233 0 0 0 1 -.500000000000017 .866025403784429
 0 .0032 16 284 51 0 ?155 286 282 283 0 0 1 31 285 346 0 286 283 287 0 +.3908957
330989 .1679487298108 0 0 0 1 -.500000000000017 .866025403784429 0 .0032 16 286
 54 0 ?152 288 284 285 0 0 1 31 287 347 0 288 285 289 0 +.3408957330989 .2545512
701892 0 0 0 1 -.500000000000017 .866025403784429 0 .0032 16 288 57 0 ?149 290 2
86 287 0 0 1 31 289 348 0 290 287 291 0 +.2908957330989 .3411538105677 0 0 0 1 -
.500000000000017 .866025403784429 0 .0032 16 290 60 0 ?146 292 288 289 0 0 1 31
 291 349 0 292 289 293 0 +-.2908957330989 .3411538105677 0 0 0 1 -.5000000000000
17 -.866025403784429 0 .0032 16 292 63 0 ?143 294 290 291 0 0 1 31 293 350 0 294
 291 295 0 +-.3408957330989 .2545512701892 0 0 0 1 -.500000000000017 -.866025403
784429 0 .0032 16 294 66 0 ?140 296 292 293 0 0 1 31 295 351 0 296 293 297 0 +-.
3908957330989 .1679487298108 0 0 0 1 -.500000000000017 -.866025403784429 0 .0032
 16 296 69 0 ?137 298 294 295 0 0 1 31 297 352 0 298 295 299 0 +-.4408957330989
 .08134618943233 0 0 0 1 -.500000000000017 -.866025403784429 0 .0032 16 298 72 0
 ?134 300 296 297 0 0 1 31 299 353 0 300 297 301 0 +-.2 .4225 0 0 0 1 1 0 0 .003
2 16 300 75 0 ?131 302 298 299 0 0 1 31 301 354 0 302 299 303 0 +-.1 .4225 0 0 0
 1 1 0 0 .0032 16 302 78 0 ?128 304 300 301 0 0 1 31 303 355 0 304 301 305 0 +.1
 .4225 0 0 0 1 1 0 0 .0032 16 304 81 0 ?125 306 302 303 0 0 1 31 305 356 0 306 3
03 307 0 +.2 .4225 0 0 0 1 1 0 0 .0032 16 306 84 0 ?122 308 304 305 0 0 1 31 307
 357 0 308 305 309 0 +0 0 .015 0 0 1 -1 0 0 .405 16 308 89 0 ?119 310 306 307 0
 0 1 30 309 358 0 310 307 311 0 +.5080682368869 5115142821516e-28 .015 -.5000000
00000095 -.866025403784384 0 16 310 93 0 ?312 313 308 309 0 0 1 30 311 359 0 313
 309 314 0 +.2540341184434 .44 .015 .500000000000096 -.866025403784383 0 16 313
 96 0 ?315 316 310 311 0 0 1 30 314 360 0 316 311 317 0 +-.2540341184434 .44 .01
5 1 0 0 16 316 98 0 ?318 319 313 314 0 0 1 30 317 361 0 319 314 320 0 +-.5080682
368869 -4255456636607e-28 .015 .500000000000095 .866025403784384 0 16 319 100 0
 ?321 322 316 317 0 0 1 30 320 362 0 322 317 323 0 +-.2540341184434 -.44 .015 -.
500000000000096 .866025403784383 0 16 322 102 0 ?223 220 319 320 0 0 1 30 323 36
3 0 220 320 324 0 +.2540341184434 -.44 .015 -1 0 0 16 220 104 0 ?213 325 322 323
 0 0 1 31 324 364 0 325 323 326 0 +-.4206018393984 .06098436434625 .015 0 0 -1 -
.989651386819654 .1434926219912932 0 .0032 16 325 107 0 ?327 328 220 324 0 0 1 3
1 326 365 0 328 324 329 0 +0 0 .015 0 0 -1 -.989651386819668 -.1434926219911952
 0 .4218 16 328 110 0 ?330 331 325 326 0 0 1 31 329 366 0 331 326 332 0 +-.42060
18393984 -.06098436434625 .015 0 0 -1 .989651386819682 .1434926219910974 0 .0032
 16 331 112 0 ?333 334 328 329 0 0 1 31 332 367 0 334 329 335 0 +237043792775e-2
6 0 .015 0 0 -1 -.989651386819668 -.1434926219911954 0 .4282 16 334 114 0 ?336 3
37 331 332 0 0 1 31 335 368 0 337 332 338 0 +.4206018393984 -.06098436434625 .01
5 0 0 -1 .989651386819654 -.1434926219912932 0 .0032 16 337 116 0 ?339 340 334 3
35 0 0 1 31 338 369 0 340 335 341 0 +0 0 .015 0 0 -1 .989651386819668 .143492621
9911952 0 .4218 16 340 119 0 ?342 343 337 338 0 0 1 31 341 370 0 343 338 344 0 +
.4206018393984 .06098436434625 .015 0 0 -1 -.989651386819682 -.1434926219910974
 0 .0032 16 343 121 0 ?345 346 340 341 0 0 1 31 344 371 0 346 341 347 0 +-237043
792775e-26 0 .015 0 0 -1 .989651386819668 .1434926219911954 0 .4282 16 346 123 0
 ?348 349 343 344 0 0 1 31 347 372 0 349 344 350 0 +-.15 -.4225 .015 0 0 1 1 0 0
 .0032 16 349 125 0 ?74 351 346 347 0 0 1 31 350 373 0 351 347 352 0 +-.05 -.422
5 .015 0 0 1 1 0 0 .0032 16 351 128 0 ?71 353 349 350 0 0 1 31 352 374 0 353 350
 354 0 +.05 -.4225 .015 0 0 1 1 0 0 .0032 16 353 131 0 ?68 355 351 352 0 0 1 31
 354 375 0 355 352 356 0 +.15 -.4225 .015 0 0 1 1 0 0 .0032 16 355 134 0 ?65 357
 353 354 0 0 1 31 356 376 0 357 354 358 0 +.4408957330989 .08134618943233 .015 0
 0 1 -.500000000000017 .866025403784429 0 .0032 16 357 137 0 ?62 359 355 356 0 0
 1 31 358 377 0 359 356 360 0 +.3908957330989 .1679487298108 .015 0 0 1 -.500000
000000017 .866025403784429 0 .0032 16 359 140 0 ?59 361 357 358 0 0 1 31 360 378
 0 361 358 362 0 +.3408957330989 .2545512701892 .015 0 0 1 -.500000000000017 .86
6025403784429 0 .0032 16 361 143 0 ?56 363 359 360 0 0 1 31 362 379 0 363 360 36
4 0 +.2908957330989 .3411538105677 .015 0 0 1 -.500000000000017 .866025403784429
 0 .0032 16 363 146 0 ?53 365 361 362 0 0 1 31 364 380 0 365 362 366 0 +-.290895
7330989 .3411538105677 .015 0 0 1 -.500000000000017 -.866025403784429 0 .0032 16
 365 149 0 ?50 367 363 364 0 0 1 31 366 381 0 367 364 368 0 +-.3408957330989 .25
45512701892 .015 0 0 1 -.500000000000017 -.866025403784429 0 .0032 16 367 152 0
 ?47 369 365 366 0 0 1 31 368 382 0 369 366 370 0 +-.3908957330989 .167948729810
8 .015 0 0 1 -.500000000000017 -.866025403784429 0 .0032 16 369 155 0 ?44 371 36
7 368 0 0 1 31 370 383 0 371 368 372 0 +-.4408957330989 .08134618943233 .015 0 0
 1 -.500000000000017 -.866025403784429 0 .0032 16 371 158 0 ?41 373 369 370 0 0
 1 31 372 384 0 373 370 374 0 +-.2 .4225 .015 0 0 1 1 0 0 .0032 16 373 161 0 ?38
 375 371 372 0 0 1 31 374 385 0 375 372 376 0 +-.1 .4225 .015 0 0 1 1 0 0 .0032
 16 375 164 0 ?33 32 373 374 0 0 1 31 376 386 0 32 374 377 0 +.1 .4225 .015 0 0
 1 1 0 0 .0032 16 32 167 0 ?28 27 375 376 0 0 1 31 377 387 0 27 376 378 0 +.2 .4
225 .015 0 0 1 1 0 0 .0032 16 27 170 0 ?23 379 32 377 0 0 1 30 378 388 0 379 377
 380 0 +.5080682368869 5115142821516e-28 .015 0 1274793266672262e-33 -1 16 379 1
74 0 ?196 225 27 378 0 0 1 30 380 389 0 225 378 226 0 +.2540341184434 -.44 .015
 0 0 -1 16 225 175 0 ?208 214 379 380 0 0 1 30 226 390 0 214 380 381 0 +-.254034
1184434 -.44 .015 0 0 -1 30 381 391 0 224 226 382 0 +-.5080682368869 -4255456636
607e-28 .015 0 -991362095173329e-30 -1 16 224 181 0 ?205 383 214 381 0 0 1 30 38
2 392 0 383 381 384 0 +-.2540341184434 .44 .015 0 0 -1 16 383 184 0 ?202 385 224
 382 0 0 1 30 384 393 0 385 382 386 0 +.2540341184434 .44 .015 0 0 -1 16 385 187
 0 ?199 387 383 384 0 0 1 30 386 394 0 387 384 388 0 +-.4174349549605 .060525187
95588 .015 0 0 -1 16 387 192 0 ?187 389 385 386 0 0 1 30 388 395 0 389 386 390 0
 +-.4237687238362 .06144354073662 .015 0 0 -1 16 389 193 0 ?190 391 387 388 0 0
 1 30 390 396 0 391 388 392 0 +-.4237687238362 -.06144354073662 .015 0 0 -1 16 3
91 196 0 ?184 393 389 390 0 0 1 30 392 397 0 393 390 394 0 +-.4174349549605 -.06
052518795588 .015 0 0 -1 16 393 199 0 ?181 395 391 392 0 0 1 30 394 398 0 395 39
2 396 0 +.4174349549605 -.06052518795588 .015 0 0 -1 16 395 204 0 ?175 397 393 3
94 0 0 1 30 396 399 0 397 394 18 0 +.4237687238362 -.06144354073662 .015 0 0 -1
 16 397 205 0 ?178 22 395 396 0 0 1 30 18 400 0 22 396 6 0 +.4237687238362 .0614
4354073662 .015 0 0 -1 16 22 208 0 ?172 9 397 18 0 0 1 17 172 0 398 269 399 170
 77 22 0 272 +15 398 207 0 269 400 0 17 269 0 398 86 172 176 401 267 0 402 +17 3
99 0 398 172 86 75 348 346 0 345 -17 77 0 403 404 272 75 172 22 0 399 -17 272 0
 403 77 21 170 405 270 0 401 +15 403 210 0 272 406 0 17 21 0 403 272 404 168 80
 9 0 407 +17 405 0 408 275 401 168 272 270 0 0 -17 401 0 408 405 402 170 269 267
 0 0 -15 408 29 0 402 236 409 17 402 0 408 401 275 176 266 264 0 0 -17 275 0 408
 402 405 173 407 273 0 266 +17 266 0 410 83 178 173 402 264 0 0 +15 410 203 0 26
6 411 0 17 83 0 410 412 266 81 175 395 0 342 -17 178 0 410 266 412 176 86 397 0
 269 +17 412 0 410 178 83 84 339 337 0 0 -17 86 0 398 399 269 84 178 397 0 348 -
17 348 0 413 339 345 84 399 346 0 412 +15 413 115 0 339 414 415 17 339 0 413 416
 348 81 412 337 0 0 +17 345 0 413 348 416 75 404 343 0 0 +17 416 0 413 345 339 7
8 342 340 0 0 -17 404 0 403 21 77 78 345 343 0 416 -17 342 0 417 175 80 81 416 3
40 0 339 +15 417 213 0 407 418 0 17 175 0 417 407 342 173 83 395 0 275 +17 80 0
 417 342 407 78 21 9 0 404 -17 407 0 417 80 175 168 275 273 0 405 -14 418 212 41
9 ?406 420 417 4 421 +0 0 406 420 20 81 1 419 487 422 418 423 0 424 425 426 14 4
06 209 424 ?400 418 403 4 427 -0 0 400 418 20 14 420 214 425 ?418 428 429 4 430
 -0 0 418 428 20 51 421 418 0 418 427 430 0 +0 0 0 0 0 1 .4218 -1 0 0 13 20 2 0
 0 0 0 0 0 8 15 14 15 259 431 ?432 0 25 4 5 -0 0 432 0 20 81 1 431 535 422 15 43
3 0 434 0 435 14 432 256 434 ?436 15 30 4 17 -0 0 436 15 20 15 25 261 0 23 15 43
7 15 437 260 0 438 15 0 17 438 0 437 438 438 120 122 306 0 0 -17 122 0 439 122 1
22 120 438 306 0 438 +15 439 83 0 122 236 440 14 236 3 441 ?0 442 439 4 443 +0 0
 0 442 20 15 440 80 0 125 236 444 17 125 0 440 125 125 123 445 304 0 445 +15 444
 77 0 128 236 446 17 128 0 444 128 128 126 447 302 0 447 +15 446 74 0 131 236 44
8 17 131 0 446 131 131 129 449 300 0 449 +15 448 71 0 134 236 450 17 134 0 448 1
34 134 132 451 298 0 451 +15 450 68 0 137 236 452 17 137 0 450 137 137 135 453 2
96 0 453 +15 452 65 0 140 236 454 17 140 0 452 140 140 138 455 294 0 455 +15 454
 62 0 143 236 456 17 143 0 454 143 143 141 457 292 0 457 +15 456 59 0 146 236 45
8 17 146 0 456 146 146 144 459 290 0 459 +15 458 56 0 149 236 460 17 149 0 458 1
49 149 147 461 288 0 461 +15 460 53 0 152 236 462 17 152 0 460 152 152 150 463 2
86 0 463 +15 462 50 0 155 236 464 17 155 0 462 155 155 153 465 284 0 465 +15 464
 47 0 158 236 466 17 158 0 464 158 158 156 467 282 0 467 +15 466 44 0 161 236 46
8 17 161 0 466 161 161 159 469 280 0 469 +15 468 41 0 164 236 470 17 164 0 468 1
64 164 162 471 278 0 471 +15 470 38 0 167 236 408 17 167 0 470 167 167 165 472 2
76 0 472 +17 472 0 473 472 472 165 167 276 0 0 -15 473 215 0 472 420 0 17 471 0
 474 471 471 162 164 278 0 0 -15 474 218 0 471 428 0 14 428 217 475 ?420 476 477
 4 478 -0 0 420 476 20 81 1 475 493 422 428 479 0 425 480 481 14 476 220 480 ?42
8 482 483 4 484 -0 0 428 482 20 15 477 219 0 71 428 474 51 478 420 0 428 430 484
 0 +-.05 -.4225 0 0 0 -1 .0032 1 0 0 51 430 419 0 420 421 478 0 +-.15 -.4225 0 0
 0 -1 .0032 1 0 0 51 484 421 0 476 478 485 0 +.05 -.4225 0 0 0 -1 .0032 1 0 0 51
 485 422 0 482 484 486 0 +.15 -.4225 0 0 0 -1 .0032 1 0 0 14 482 223 487 ?476 48
8 489 4 485 -0 0 476 488 20 51 486 423 0 488 485 490 0 +.4408957330989 .08134618
943233 0 0 0 -1 .0032 -.500000000000017 .866025403784429 0 14 488 226 491 ?482 4
92 493 4 486 -0 0 482 492 20 51 490 424 0 492 486 494 0 +.3908957330989 .1679487
298108 0 0 0 -1 .0032 -.500000000000017 .866025403784429 0 14 492 229 495 ?488 4
96 497 4 490 -0 0 488 496 20 51 494 425 0 496 490 498 0 +.3408957330989 .2545512
701892 0 0 0 -1 .0032 -.500000000000017 .866025403784429 0 14 496 232 499 ?492 5
00 501 4 494 -0 0 492 500 20 51 498 426 0 500 494 502 0 +.2908957330989 .3411538
105677 0 0 0 -1 .0032 -.500000000000017 .866025403784429 0 14 500 235 503 ?496 5
04 505 4 498 -0 0 496 504 20 51 502 427 0 504 498 506 0 +-.2908957330989 .341153
8105677 0 0 0 -1 .0032 -.500000000000017 -.866025403784429 0 14 504 238 507 ?500
 508 509 4 502 -0 0 500 508 20 51 506 428 0 508 502 510 0 +-.3408957330989 .2545
512701892 0 0 0 -1 .0032 -.500000000000017 -.866025403784429 0 14 508 241 511 ?5
04 512 513 4 506 -0 0 504 512 20 51 510 429 0 512 506 514 0 +-.3908957330989 .16
79487298108 0 0 0 -1 .0032 -.500000000000017 -.866025403784429 0 14 512 244 515
 ?508 516 517 4 510 -0 0 508 516 20 51 514 430 0 516 510 518 0 +-.4408957330989
 .08134618943233 0 0 0 -1 .0032 -.500000000000017 -.866025403784429 0 14 516 247
 519 ?512 520 521 4 514 -0 0 512 520 20 51 518 431 0 520 514 522 0 +-.2 .4225 0
 0 0 -1 .0032 1 0 0 14 520 250 523 ?516 436 524 4 518 -0 0 516 436 20 51 522 432
 0 436 518 17 0 +-.1 .4225 0 0 0 -1 .0032 1 0 0 14 436 253 525 ?520 432 526 4 52
2 -0 0 520 432 20 51 17 433 0 432 522 5 0 +.1 .4225 0 0 0 -1 .0032 1 0 0 81 1 52
5 529 422 436 527 0 523 434 528 15 526 255 0 33 436 529 17 33 0 526 33 33 29 530
 375 0 530 +15 529 254 0 447 436 0 17 447 0 529 447 447 126 128 302 0 0 -17 530
 0 531 530 530 29 33 375 0 0 -15 531 163 0 530 414 532 14 414 91 533 ?442 534 53
5 4 536 +0 0 442 534 20 15 532 160 0 537 414 538 17 537 0 532 537 537 34 38 373
 0 0 -15 538 157 0 539 414 540 17 539 0 538 539 539 39 41 371 0 0 -15 540 154 0
 541 414 542 17 541 0 540 541 541 42 44 369 0 0 -15 542 151 0 543 414 544 17 543
 0 542 543 543 45 47 367 0 0 -15 544 148 0 545 414 546 17 545 0 544 545 545 48 5
0 365 0 0 -15 546 145 0 547 414 548 17 547 0 546 547 547 51 53 363 0 0 -15 548 1
42 0 549 414 550 17 549 0 548 549 549 54 56 361 0 0 -15 550 139 0 551 414 552 17
 551 0 550 551 551 57 59 359 0 0 -15 552 136 0 553 414 554 17 553 0 552 553 553
 60 62 357 0 0 -15 554 133 0 555 414 556 17 555 0 554 555 555 63 65 355 0 0 -15
 556 130 0 557 414 558 17 557 0 556 557 557 66 68 353 0 0 -15 558 127 0 559 414
 560 17 559 0 558 559 559 69 71 351 0 0 -15 560 124 0 561 414 413 17 561 0 560 5
61 561 72 74 349 0 0 -17 74 0 429 74 74 72 561 349 0 561 +15 429 216 0 74 420 47
3 17 71 0 477 71 71 69 559 351 0 559 +17 68 0 483 68 68 66 557 353 0 557 +15 483
 222 0 68 476 562 15 562 221 0 469 476 0 17 469 0 562 469 469 159 161 280 0 0 -1
7 65 0 489 65 65 63 555 355 0 555 +15 489 225 0 65 482 563 15 563 224 0 467 482
 0 17 467 0 563 467 467 156 158 282 0 0 -17 62 0 493 62 62 60 553 357 0 553 +15
 493 228 0 62 488 564 15 564 227 0 465 488 0 17 465 0 564 465 465 153 155 284 0
 0 -17 59 0 497 59 59 57 551 359 0 551 +15 497 231 0 59 492 565 15 565 230 0 463
 492 0 17 463 0 565 463 463 150 152 286 0 0 -17 56 0 501 56 56 54 549 361 0 549
 +15 501 234 0 56 496 566 15 566 233 0 461 496 0 17 461 0 566 461 461 147 149 28
8 0 0 -17 53 0 505 53 53 51 547 363 0 547 +15 505 237 0 53 500 567 15 567 236 0
 459 500 0 17 459 0 567 459 459 144 146 290 0 0 -17 50 0 509 50 50 48 545 365 0
 545 +15 509 240 0 50 504 568 15 568 239 0 457 504 0 17 457 0 568 457 457 141 14
3 292 0 0 -17 47 0 513 47 47 45 543 367 0 543 +15 513 243 0 47 508 569 15 569 24
2 0 455 508 0 17 455 0 569 455 455 138 140 294 0 0 -17 44 0 517 44 44 42 541 369
 0 541 +15 517 246 0 44 512 570 15 570 245 0 453 512 0 17 453 0 570 453 453 135
 137 296 0 0 -17 41 0 521 41 41 39 539 371 0 539 +15 521 249 0 41 516 571 15 571
 248 0 451 516 0 17 451 0 571 451 451 132 134 298 0 0 -17 38 0 524 38 38 34 537
 373 0 537 +15 524 252 0 38 520 572 15 572 251 0 449 520 0 17 449 0 572 449 449
 129 131 300 0 0 -81 1 533 445 422 414 573 0 574 575 576 14 442 86 574 ?236 414
 577 4 578 -0 0 236 414 20 14 534 172 575 ?414 216 579 4 580 +0 0 414 216 20 15
 535 169 0 26 414 581 50 536 404 0 414 578 580 0 +0 0 .015 0 0 1 1 0 0 51 578 40
3 0 442 443 536 0 +0 0 0 0 0 -1 .405 1 0 0 50 580 405 0 534 536 582 0 +.25403411
84434 -.44 0 .866025403784429 -.500000000000017 0 .50000000000003 .8660254037844
22 0 50 582 406 0 216 580 583 0 +-.2540341184434 -.44 0 0 -1 0 1 0 0 14 216 176
 584 ?534 229 211 4 582 +0 0 534 229 20 50 583 407 0 229 582 585 0 +-.5080682368
869 -4163701339806e-28 0 -.866025403784429 -.500000000000017 0 .5 -.866025403784
436 0 14 229 179 586 ?216 587 222 4 583 +0 0 216 587 20 50 585 408 0 587 583 588
 0 +-.2540341184434 .44 0 -.866025403784429 .500000000000017 0 -.50000000000003
 -.866025403784422 0 14 587 182 589 ?229 590 591 4 585 +0 0 229 590 20 50 588 40
9 0 590 585 592 0 +.2540341184434 .44 0 0 1 0 -1 0 0 14 590 185 593 ?587 594 595
 4 588 +0 0 587 594 20 50 592 410 0 594 588 596 0 +.5080682368869 5113613069604e
-28 0 .866025403784429 .500000000000017 0 -.5 .866025403784436 0 14 594 188 597
 ?590 598 599 4 592 +0 0 590 598 20 51 596 411 0 598 592 600 0 +-.4206018393984
 .06098436434625 0 0 0 -1 .0032 1 0 0 14 598 190 601 ?594 602 603 4 596 -0 0 594
 602 20 51 600 412 0 602 596 604 0 +237043792775e-26 0 0 0 0 -1 .4282 1 0 0 14 6
02 194 605 ?598 606 607 4 600 -0 0 598 606 20 51 604 413 0 606 600 608 0 +-.4206
018393984 -.06098436434625 0 0 0 -1 .0032 1 0 0 14 606 197 609 ?602 610 611 4 60
4 -0 0 602 610 20 51 608 414 0 610 604 612 0 +0 0 0 0 0 1 .4218 1 0 0 14 610 200
 613 ?606 411 614 4 608 +0 0 606 411 20 51 612 415 0 411 608 615 0 +.42060183939
84 -.06098436434625 0 0 0 -1 .0032 -1 0 0 14 411 202 616 ?610 400 410 4 612 -0 0
 610 400 20 51 615 416 0 400 612 427 0 +-237043792775e-26 0 0 0 0 -1 .4282 -1 0
 0 14 400 206 617 ?411 406 398 4 615 -0 0 411 406 20 51 427 417 0 406 615 421 0
 +.4206018393984 .06098436434625 0 0 0 -1 .0032 -1 0 0 81 1 617 481 422 400 618
 0 616 424 619 80 1 422 620 621 8015 0 0 0 0 3 5 0 0 0 FFFFTFFFFFFFFF2 81 2 618
 480 620 400 622 617 623 624 625 626 81 1 616 478 422 411 623 0 613 617 627 81 1
 424 484 422 406 624 0 617 419 628 83 1 619 0 81 2 624 483 620 406 629 424 618 4
23 630 631 83 1 628 0 80 2 620 632 633 8014 0 0 0 0 3 5 0 0 0 FFFFTFFFFFFFFF2 1
 81 1 629 482 634 406 0 624 622 635 636 81 2 423 486 620 418 635 419 624 637 638
 639 83 4 630 1 0 .788050758126423 .788050758126423 82 1 631 0 81 1 635 485 634
 418 0 423 629 640 641 81 2 637 489 620 420 640 425 423 479 642 643 83 4 638 1 0
 .788050758126423 .788050758126423 82 1 639 0 81 1 640 488 634 420 0 637 635 644
 645 81 1 425 490 422 420 637 0 419 475 646 81 2 479 492 620 428 644 475 637 647
 648 649 83 4 642 1 0 .788050758126423 .788050758126423 82 1 643 0 81 1 644 491
 634 428 0 479 640 650 651 81 2 647 495 620 476 650 480 479 652 653 654 83 4 648
 1 0 .788050758126423 .788050758126423 82 1 649 0 81 1 650 494 634 476 0 647 644
 655 656 81 1 480 496 422 476 647 0 475 487 657 81 2 652 498 620 482 655 487 647
 658 659 660 83 4 653 1 0 .788050758126423 .788050758126423 82 1 654 0 81 1 655
 497 634 482 0 652 650 661 662 81 1 487 499 422 482 652 0 480 491 663 81 2 658 5
01 620 488 661 491 652 664 665 666 83 4 659 1 0 .788050758126423 .78805075812642
3 82 1 660 0 81 1 661 500 634 488 0 658 655 667 668 81 1 491 502 422 488 658 0 4
87 495 669 81 2 664 504 620 492 667 495 658 670 671 672 83 4 665 1 0 .7880507581
26423 .788050758126423 82 1 666 0 81 1 667 503 634 492 0 664 661 673 674 81 1 49
5 505 422 492 664 0 491 499 675 81 2 670 507 620 496 673 499 664 676 677 678 83
 4 671 1 0 .788050758126423 .788050758126423 82 1 672 0 81 1 673 506 634 496 0 6
70 667 679 680 81 1 499 508 422 496 670 0 495 503 681 81 2 676 510 620 500 679 5
03 670 682 683 684 83 4 677 1 0 .788050758126423 .788050758126423 82 1 678 0 81
 1 679 509 634 500 0 676 673 685 686 81 1 503 511 422 500 676 0 499 507 687 81 2
 682 513 620 504 685 507 676 688 689 690 83 4 683 1 0 .788050758126423 .78805075
8126423 82 1 684 0 81 1 685 512 634 504 0 682 679 691 692 81 1 507 514 422 504 6
82 0 503 511 693 81 2 688 516 620 508 691 511 682 694 695 696 83 4 689 1 0 .7880
50758126423 .788050758126423 82 1 690 0 81 1 691 515 634 508 0 688 685 697 698 8
1 1 511 517 422 508 688 0 507 515 699 81 2 694 519 620 512 697 515 688 700 701 7
02 83 4 695 1 0 .788050758126423 .788050758126423 82 1 696 0 81 1 697 518 634 51
2 0 694 691 703 704 81 1 515 520 422 512 694 0 511 519 705 81 2 700 522 620 516
 703 519 694 706 707 708 83 4 701 1 0 .788050758126423 .788050758126423 82 1 702
 0 81 1 703 521 634 516 0 700 697 709 710 81 1 519 523 422 516 700 0 515 523 711
 81 2 706 525 620 520 709 523 700 527 712 713 83 4 707 1 0 .788050758126423 .788
050758126423 82 1 708 0 81 1 709 524 634 520 0 706 703 714 715 81 1 523 526 422
 520 706 0 519 525 716 81 2 527 528 620 436 714 525 706 717 718 719 83 4 712 1 0
 .788050758126423 .788050758126423 82 1 713 0 81 1 714 527 634 436 0 527 709 720
 721 81 2 717 531 620 432 720 434 527 433 722 723 83 4 718 1 0 .788050758126423
 .788050758126423 82 1 719 0 81 1 720 530 634 432 0 717 714 724 725 81 1 434 532
 422 432 717 0 525 431 726 81 2 433 534 620 15 724 431 717 0 727 728 83 4 722 1
 0 .788050758126423 .788050758126423 82 1 723 0 81 1 724 533 634 15 0 433 720 0
 729 83 4 727 1 0 .788050758126423 .788050758126423 82 1 728 0 80 1 634 0 730 80
01 0 0 0 0 3 5 0 0 0 FFFFTFTFFFFFFF2 83 3 729 .694117647058824 .741176470588235
 .788235294117647 79 15 730 SDL/TYSA_COLOUR83 1 726 0 83 3 725 .694117647058824
 .741176470588235 .788235294117647 83 3 721 .694117647058824 .741176470588235 .7
88235294117647 83 1 716 0 83 3 715 .694117647058824 .741176470588235 .7882352941
17647 83 1 711 0 83 3 710 .694117647058824 .741176470588235 .788235294117647 83
 1 705 0 83 3 704 .694117647058824 .741176470588235 .788235294117647 83 1 699 0
 83 3 698 .694117647058824 .741176470588235 .788235294117647 83 1 693 0 83 3 692
 .694117647058824 .741176470588235 .788235294117647 83 1 687 0 83 3 686 .6941176
47058824 .741176470588235 .788235294117647 83 1 681 0 83 3 680 .694117647058824
 .741176470588235 .788235294117647 83 1 675 0 83 3 674 .694117647058824 .7411764
70588235 .788235294117647 83 1 669 0 83 3 668 .694117647058824 .741176470588235
 .788235294117647 83 1 663 0 83 3 662 .694117647058824 .741176470588235 .7882352
94117647 83 1 657 0 83 3 656 .694117647058824 .741176470588235 .788235294117647
 83 3 651 .694117647058824 .741176470588235 .788235294117647 83 1 646 0 83 3 645
 .694117647058824 .741176470588235 .788235294117647 83 3 641 .694117647058824 .7
41176470588235 .788235294117647 81 1 622 479 634 400 0 618 731 629 732 83 3 636
 .694117647058824 .741176470588235 .788235294117647 81 1 731 476 634 411 0 623 7
33 622 734 83 3 732 .694117647058824 .741176470588235 .788235294117647 81 2 623
 477 620 411 731 616 735 618 736 737 81 1 733 473 634 610 0 735 738 731 739 83 3
 734 .694117647058824 .741176470588235 .788235294117647 81 2 735 474 620 610 733
 613 740 623 741 742 81 1 738 470 634 606 0 740 743 733 744 83 3 739 .6941176470
58824 .741176470588235 .788235294117647 81 2 740 471 620 606 738 609 745 735 746
 747 81 1 743 467 634 602 0 745 748 738 749 83 3 744 .694117647058824 .741176470
588235 .788235294117647 81 2 745 468 620 602 743 605 750 740 751 752 81 1 748 46
4 634 598 0 750 753 743 754 83 3 749 .694117647058824 .741176470588235 .78823529
4117647 81 2 750 465 620 598 748 601 755 745 756 757 81 1 753 461 634 594 0 755
 758 748 759 83 3 754 .694117647058824 .741176470588235 .788235294117647 81 2 75
5 462 620 594 753 597 760 750 761 762 81 1 758 458 634 590 0 760 763 753 764 83
 3 759 .694117647058824 .741176470588235 .788235294117647 81 2 760 459 620 590 7
58 593 765 755 766 767 81 1 763 455 634 587 0 765 768 758 769 83 3 764 .69411764
7058824 .741176470588235 .788235294117647 81 2 765 456 620 587 763 589 770 760 7
71 772 81 1 768 452 634 229 0 770 773 763 774 83 3 769 .694117647058824 .7411764
70588235 .788235294117647 81 2 770 453 620 229 768 586 775 765 776 777 81 1 773
 449 634 216 0 775 778 768 779 83 3 774 .694117647058824 .741176470588235 .78823
5294117647 81 2 775 450 620 216 773 584 780 770 781 782 81 1 778 446 634 534 0 7
80 783 773 784 83 3 779 .694117647058824 .741176470588235 .788235294117647 81 2
 780 447 620 534 778 575 573 775 785 786 81 1 783 443 634 414 0 573 787 778 788
 83 3 784 .694117647058824 .741176470588235 .788235294117647 81 2 573 444 620 41
4 783 533 789 780 790 791 81 1 787 440 634 442 0 789 792 783 793 83 3 788 .69411
7647058824 .741176470588235 .788235294117647 81 2 789 441 620 442 787 574 794 57
3 795 796 81 1 792 437 634 236 0 794 0 787 797 83 3 793 .694117647058824 .741176
470588235 .788235294117647 81 2 794 438 620 236 792 441 0 789 798 799 83 3 797 .
694117647058824 .741176470588235 .788235294117647 81 1 441 439 422 236 794 0 0 5
74 800 83 4 798 1 0 .788050758126423 .788050758126423 82 1 799 0 81 1 574 442 42
2 442 789 0 441 533 801 83 1 800 0 83 1 801 0 83 4 795 1 0 .788050758126423 .788
050758126423 82 1 796 0 83 4 790 1 0 .788050758126423 .788050758126423 82 1 791
 0 81 1 575 448 422 534 780 0 533 584 802 83 4 785 1 0 .788050758126423 .7880507
58126423 82 1 786 0 81 1 584 451 422 216 775 0 575 586 803 83 1 802 0 81 1 586 4
54 422 229 770 0 584 589 804 83 1 803 0 81 1 589 457 422 587 765 0 586 593 805 8
3 1 804 0 81 1 593 460 422 590 760 0 589 597 806 83 1 805 0 81 1 597 463 422 594
 755 0 593 601 807 83 1 806 0 81 1 601 466 422 598 750 0 597 605 808 83 1 807 0
 81 1 605 469 422 602 745 0 601 609 809 83 1 808 0 81 1 609 472 422 606 740 0 60
5 613 810 83 1 809 0 81 1 613 475 422 610 735 0 609 616 811 83 1 810 0 83 1 811
 0 83 4 781 1 0 .788050758126423 .788050758126423 82 1 782 0 83 4 776 1 0 .78805
0758126423 .788050758126423 82 1 777 0 83 4 771 1 0 .788050758126423 .7880507581
26423 82 1 772 0 83 4 766 1 0 .788050758126423 .788050758126423 82 1 767 0 83 4
 761 1 0 .788050758126423 .788050758126423 82 1 762 0 83 4 756 1 0 .788050758126
423 .788050758126423 82 1 757 0 83 4 751 1 0 .788050758126423 .788050758126423 8
2 1 752 0 83 4 746 1 0 .788050758126423 .788050758126423 82 1 747 0 83 4 741 1 0
 .788050758126423 .788050758126423 82 1 742 0 83 4 736 1 0 .788050758126423 .788
050758126423 82 1 737 0 79 21 633 SDL/TYSA_REFLECTIVITY83 1 627 0 83 4 625 1 0 .
788050758126423 .788050758126423 82 1 626 0 79 21 621 SDL/TYSA_TRANSLUCENCY15 61
4 201 0 812 610 0 17 812 0 614 92 187 179 263 261 0 813 -17 92 0 614 330 812 90
 181 393 0 814 -17 187 0 614 812 330 185 95 387 0 263 +17 263 0 409 815 813 185
 812 261 0 254 +17 813 0 409 263 816 179 260 258 0 0 -15 409 20 0 815 236 817 17
 816 0 409 813 815 182 257 255 0 0 -17 260 0 611 89 181 182 813 258 0 816 +15 61
1 198 0 260 606 0 17 89 0 611 814 260 87 184 391 0 818 -17 181 0 611 260 814 179
 92 393 0 812 +17 814 0 611 181 89 90 333 331 0 819 -17 333 0 415 336 819 87 814
 331 0 0 +17 819 0 415 333 327 90 330 328 0 0 -15 415 106 0 327 414 820 17 327 0
 415 819 336 93 821 325 0 0 +17 330 0 614 187 92 93 819 328 0 327 +17 336 0 415
 327 333 96 818 334 0 821 +17 821 0 603 190 95 96 327 325 0 0 -15 603 191 0 254
 598 0 17 190 0 603 254 821 188 98 389 0 257 +17 95 0 603 821 254 93 187 387 0 3
30 -17 254 0 603 95 190 185 815 252 0 0 +17 815 0 409 816 263 188 254 252 0 0 -1
7 98 0 607 818 257 96 190 389 0 336 -17 257 0 607 98 184 188 816 255 0 815 +15 6
07 195 0 257 602 0 17 184 0 607 257 818 182 89 391 0 260 +17 818 0 607 184 98 87
 336 334 0 333 -15 820 105 0 822 414 823 17 822 0 820 822 822 117 119 308 0 0 -1
5 823 92 0 824 414 0 17 824 0 823 825 219 114 312 310 0 0 -17 825 0 823 826 824
 108 315 313 0 0 -17 219 0 823 824 221 111 213 220 0 312 -17 312 0 579 208 116 1
11 824 310 0 0 +15 579 173 0 238 534 0 17 208 0 579 238 312 206 113 225 0 235 +1
7 116 0 579 312 238 114 196 379 0 315 -17 238 0 579 116 208 194 235 239 0 237 +1
7 196 0 599 248 315 194 116 379 0 238 +17 315 0 599 196 110 114 825 313 0 824 +1
5 599 189 0 248 594 0 17 110 0 599 315 248 108 199 385 0 318 -17 248 0 599 110 1
96 197 237 246 0 827 +17 199 0 595 245 318 197 110 385 0 248 +17 318 0 595 199 1
07 108 826 316 0 825 +15 595 186 0 245 590 0 17 107 0 595 318 245 105 202 383 0
 321 -17 826 0 823 828 825 105 318 316 0 0 -17 828 0 823 221 826 102 321 319 0 0
 -17 221 0 823 219 828 99 223 322 0 0 -17 321 0 591 202 104 105 828 319 0 826 +1
5 591 183 0 230 587 0 17 202 0 591 230 321 200 107 383 0 245 +17 104 0 591 321 2
30 102 205 224 0 223 -17 230 0 591 104 202 203 232 233 0 227 +17 223 0 222 205 1
01 102 221 322 0 828 +17 232 0 231 827 227 200 230 233 0 0 -17 827 0 231 237 232
 197 245 243 0 0 -17 237 0 231 235 827 194 248 246 0 0 -17 245 0 595 107 199 200
 827 243 0 232 +17 113 0 211 213 212 111 208 225 0 219 -17 119 0 577 119 119 117
 822 308 0 822 +15 577 88 0 119 442 829 15 829 87 0 830 442 0 17 830 0 829 830 8
30 191 193 250 0 0 -17 193 0 817 193 193 191 830 250 0 830 +15 817 17 0 193 236
 231 50 443 402 0 236 0 578 0 +0 0 0 0 0 -1 1 0 0 17 26 0 535 26 26 10 23 27 0 0
 -15 581 166 0 31 414 531 17 31 0 581 31 31 24 28 32 0 0 -83 1 576 0 83 1 528 0
 83 1 481 0 17 445 0 831 445 445 123 125 304 0 0 -15 831 257 0 445 432 0 15 30 2
58 0 28 432 831 83 1 435 0 83 1 426 0 19 16 262 0 1 0 8 4 S74 20 14 6 0 832 12 7
24 433 431 2 0 0 0 0 0 0 0 0 0 0 0 0 0 0 81 1 832 435 833 1 0 12 0 0 834 81 1 12
 436 835 1 832 2 0 0 836 80 1 835 422 837 8041 0 0 0 0 3 5 0 0 0 TTTFFFFFFFFFFF2
 83 1 836 0 79 23 837 SDL/TYSA_TRANSLUCENCY_280 1 833 634 838 8040 0 0 0 0 3 5 0
 0 0 TTTFFFFFFFFFFF2 83 3 834 .694117647058824 .741176470588235 .788235294117647
 79 17 838 SDL/TYSA_COLOUR_280 1 11 839 840 8017 0 0 0 0 0 0 0 0 0 TTTTTTTTTTTTT
F3 84 6 13 Solid179 13 840 SDL/TYSA_NAME1 0 
